<svg width="14" height="14" viewBox="0 0 14 14" xmlns="http://www.w3.org/2000/svg" class="ff-arrow-morph"><defs><style>.w-embed:has(svg.ff-arrow-morph){width:14px!important;height:14px!important;display:block!important}.ff-nav__item-caret{width:14px!important;height:14px!important;display:inline-block!important}svg.ff-arrow-morph{display:block!important}@keyframes arrowMorph{0%{d:path('M11.68 5.56L7.31 9.93C7.27 9.98 7.22 10.01 7.17 10.03C7.11 10.05 7.06 10.06 7 10.06C6.94 10.06 6.89 10.05 6.83 10.03C6.78 10.01 6.73 9.98 6.69 9.93L2.32 5.56C2.23 5.48 2.19 5.37 2.19 5.25C2.19 5.13 2.23 5.02 2.32 4.94C2.40 4.86 2.51 4.81 2.63 4.81C2.74 4.81 2.85 4.86 2.93 4.94L7 9.01L11.07 4.94C11.11 4.90 11.15 4.87 11.21 4.85C11.26 4.82 11.32 4.81 11.38 4.81C11.43 4.81 11.49 4.82 11.54 4.85C11.60 4.87 11.64 4.90 11.68 4.94C11.73 4.98 11.76 5.03 11.78 5.08C11.80 5.14 11.81 5.19 11.81 5.25C11.81 5.31 11.80 5.36 11.78 5.42C11.76 5.47 11.73 5.52 11.68 5.56Z');fill:#91908F}100%{d:path('M11.68 9.06C11.64 9.10 11.60 9.13 11.54 9.15C11.49 9.18 11.43 9.19 11.38 9.19C11.32 9.19 11.26 9.18 11.21 9.15C11.15 9.13 11.11 9.10 11.07 9.06L7 4.99L2.93 9.06C2.85 9.14 2.74 9.19 2.63 9.19C2.51 9.19 2.40 9.14 2.32 9.06C2.23 8.98 2.19 8.87 2.19 8.75C2.19 8.63 2.23 8.52 2.32 8.44L6.69 4.07C6.73 4.02 6.78 3.99 6.83 3.97C6.89 3.95 6.94 3.94 7 3.94C7.06 3.94 7.11 3.95 7.17 3.97C7.22 3.99 7.27 4.02 7.31 4.07L11.68 8.44C11.73 8.48 11.76 8.53 11.78 8.58C11.80 8.64 11.81 8.69 11.81 8.75C11.81 8.81 11.80 8.86 11.78 8.92C11.76 8.97 11.73 9.02 11.68 9.06Z');fill:#31302F}}path{animation:arrowMorph 0.3s ease-out forwards paused}svg.ff-arrow-active path{animation-play-state:running}</style></defs><path d="M11.68 5.56L7.31 9.93C7.27 9.98 7.22 10.01 7.17 10.03C7.11 10.05 7.06 10.06 7 10.06C6.94 10.06 6.89 10.05 6.83 10.03C6.78 10.01 6.73 9.98 6.69 9.93L2.32 5.56C2.23 5.48 2.19 5.37 2.19 5.25C2.19 5.13 2.23 5.02 2.32 4.94C2.40 4.86 2.51 4.81 2.63 4.81C2.74 4.81 2.85 4.86 2.93 4.94L7 9.01L11.07 4.94C11.11 4.90 11.15 4.87 11.21 4.85C11.26 4.82 11.32 4.81 11.38 4.81C11.43 4.81 11.49 4.82 11.54 4.85C11.60 4.87 11.64 4.90 11.68 4.94C11.73 4.98 11.76 5.03 11.78 5.08C11.80 5.14 11.81 5.19 11.81 5.25C11.81 5.31 11.80 5.36 11.78 5.42C11.76 5.47 11.73 5.52 11.68 5.56Z" fill="#91908F"/></svg>
