<svg width="14" height="14" viewBox="0 0 14 14" fill="none" xmlns="http://www.w3.org/2000/svg" class="ff-arrow-morph">
<defs>
<style>
@keyframes arrowMorph {
  0% {
    d: path('M9.93477 7.30953L5.55977 11.6845C5.51913 11.7252 5.47087 11.7574 5.41776 11.7794C5.36465 11.8014 5.30773 11.8127 5.25024 11.8127C5.19276 11.8127 5.13584 11.8014 5.08273 11.7794C5.02962 11.7574 4.98136 11.7252 4.94071 11.6845C4.90006 11.6439 4.86782 11.5956 4.84582 11.5425C4.82382 11.4894 4.8125 11.4325 4.8125 11.375C4.8125 11.3175 4.82382 11.2606 4.84582 11.2075C4.86782 11.1544 4.90006 11.1061 4.94071 11.0655L9.00673 7L4.94071 2.93453C4.85862 2.85244 4.8125 2.7411 4.8125 2.625C4.8125 2.5089 4.85862 2.39756 4.94071 2.31547C5.0228 2.23338 5.13415 2.18726 5.25024 2.18726C5.36634 2.18726 5.47768 2.23338 5.55977 2.31547L9.93477 6.69047C9.97545 6.7311 10.0077 6.77935 10.0297 6.83246C10.0518 6.88557 10.0631 6.9425 10.0631 7C10.0631 7.05749 10.0518 7.11442 10.0297 7.16754C10.0077 7.22065 9.97545 7.2689 9.93477 7.30953Z');
    fill: #91908F;
  }
  100% {
    d: path('M11.6848 9.05951C11.6441 9.10019 11.5959 9.13246 11.5428 9.15447C11.4897 9.17649 11.4327 9.18782 11.3752 9.18782C11.3177 9.18782 11.2608 9.17649 11.2077 9.15447C11.1546 9.13246 11.1063 9.10019 11.0657 9.05951L7.00024 4.99349L2.93477 9.05951C2.85268 9.1416 2.74134 9.18772 2.62524 9.18772C2.50915 9.18772 2.3978 9.1416 2.31571 9.05951C2.23362 8.97742 2.1875 8.86607 2.1875 8.74998C2.1875 8.63388 2.23362 8.52254 2.31571 8.44045L6.69071 4.06545C6.73134 4.02477 6.7796 3.9925 6.83271 3.97048C6.88582 3.94847 6.94275 3.93713 7.00024 3.93713C7.05774 3.93713 7.11467 3.94847 7.16778 3.97048C7.22089 3.9925 7.26914 4.02477 7.30977 4.06545L11.6848 8.44045C11.7255 8.48108 11.7577 8.52933 11.7797 8.58244C11.8018 8.63555 11.8131 8.69248 11.8131 8.74998C11.8131 8.80747 11.8018 8.8644 11.7797 8.91751C11.7577 8.97063 11.7255 9.01888 11.6848 9.05951Z');
    fill: #31302F;
  }
}

path {
  animation: arrowMorph 0.3s ease-out;
  animation-fill-mode: forwards;
  animation-play-state: paused;
}

svg.ff-arrow-active path {
  animation-play-state: running;
}
</style>
</defs>
<path d="M9.93477 7.30953L5.55977 11.6845C5.51913 11.7252 5.47087 11.7574 5.41776 11.7794C5.36465 11.8014 5.30773 11.8127 5.25024 11.8127C5.19276 11.8127 5.13584 11.8014 5.08273 11.7794C5.02962 11.7574 4.98136 11.7252 4.94071 11.6845C4.90006 11.6439 4.86782 11.5956 4.84582 11.5425C4.82382 11.4894 4.8125 11.4325 4.8125 11.375C4.8125 11.3175 4.82382 11.2606 4.84582 11.2075C4.86782 11.1544 4.90006 11.1061 4.94071 11.0655L9.00673 7L4.94071 2.93453C4.85862 2.85244 4.8125 2.7411 4.8125 2.625C4.8125 2.5089 4.85862 2.39756 4.94071 2.31547C5.0228 2.23338 5.13415 2.18726 5.25024 2.18726C5.36634 2.18726 5.47768 2.23338 5.55977 2.31547L9.93477 6.69047C9.97545 6.7311 10.0077 6.77935 10.0297 6.83246C10.0518 6.88557 10.0631 6.9425 10.0631 7C10.0631 7.05749 10.0518 7.11442 10.0297 7.16754C10.0077 7.22065 9.97545 7.2689 9.93477 7.30953Z" fill="#91908F"/>
</svg>
