<svg width="12" height="12" viewBox="0 0 12 12" fill="none" xmlns="http://www.w3.org/2000/svg" class="ff-caret-morph">
<defs>
<style>
svg.ff-caret-morph {
  display: block;
  transition: transform 0.3s ease-out;
}

svg.ff-caret-morph path {
  fill: #91908F;
  transition: fill 0.3s ease-out;
}

svg.ff-caret-morph.active {
  transform: rotate(180deg);
}

svg.ff-caret-morph.active path {
  fill: #31302F;
}
</style>
</defs>
<path fill="#91908F" d="M10.1484 4.89796L6.39844 8.64796C6.34618 8.7004 6.28408 8.74201 6.21571 8.7704C6.14734 8.79879 6.07403 8.8134 6 8.8134C5.92597 8.8134 5.85266 8.79879 5.78429 8.7704C5.71592 8.74201 5.65382 8.7004 5.60156 8.64796L1.85156 4.89796C1.74589 4.79229 1.68652 4.64896 1.68652 4.49952C1.68652 4.35008 1.74589 4.20676 1.85156 4.10108C1.95723 3.99541 2.10056 3.93605 2.25 3.93605C2.39944 3.93605 2.54276 3.99541 2.64844 4.10108L6.00047 7.45312L9.3525 4.10062C9.45817 3.99494 9.60149 3.93558 9.75094 3.93558C9.90038 3.93558 10.0437 3.99494 10.1494 4.10062C10.255 4.20629 10.3144 4.34961 10.3144 4.49905C10.3144 4.6485 10.255 4.79182 10.1494 4.89749L10.1484 4.89796Z"/>
</svg>
